<svg viewBox="8460 3655 5200 5200" xmlns="http://www.w3.org/2000/svg" style="fill-rule:evenodd;clip-rule:evenodd;">
    <rect x="8460" y="3655" width="5200" height="5200" fill="#000000"/>
    <g transform="matrix(4.16667,0,0,4.16667,0,0)">
        <path d="M3086.44,1432.34C3054.77,1195.97 2846,1013.24 2607.28,1013.07C2484.11,1012.98 2360.94,1013.05 2237.77,1013.05L2218.75,1013.05L2218.75,1129.08L2336.51,1129.08L2337.56,1130.32L2355.59,1130.32C2435.6,1130.32 2515.6,1130.1 2595.6,1130.48C2615.12,1130.58 2634.75,1131.65 2654.11,1134.03C2855.47,1158.82 3003.79,1358.49 2969.59,1558.31C2938.21,1741.7 2786.62,1869.63 2600.58,1869.69C2526.89,1869.71 2453.21,1869.69 2379.53,1869.69L2249.21,1986.97C2366.53,1986.97 2483.84,1986.96 2601.15,1986.98C2901.45,1987.02 3126.32,1730.03 3086.44,1432.34Z" style="fill:#ffffff;fill-rule:nonzero;"/>
        <path d="M2603.2,1776.14C2623.74,1776.04 2644.6,1773.28 2664.72,1769C2793.65,1741.56 2884.51,1619.9 2878.05,1484.44C2871.85,1354.24 2767.34,1239.87 2638.68,1227.47C2582.19,1222.03 2524.91,1224.85 2467.98,1223.98C2456.63,1223.81 2445.29,1223.96 2433.63,1223.96L2433.63,1607.64L2550.33,1478.75L2550.33,1341.25C2568.09,1341.25 2583.53,1341.12 2598.97,1341.27C2690.39,1342.16 2761.27,1412.37 2760.9,1501.62C2760.55,1589.52 2689.04,1658.77 2598.06,1658.98C2516.33,1659.17 2434.6,1659.02 2352.87,1659.02L2336.18,1659.02L2336.18,1220.31L2218.75,1220.31L2218.75,1775.88C2224.06,1776.11 2228.01,1776.44 2231.96,1776.44C2355.7,1776.47 2479.45,1776.79 2603.2,1776.14Z" style="fill:#ffffff;fill-rule:nonzero;"/>
    </g>
</svg>
